<svg width="30" height="30" viewBox="0 0 30 30" fill="none" xmlns="http://www.w3.org/2000/svg">
<path d="M27.857 12.8571C26.6735 12.8571 25.714 13.8165 25.714 15.0001C25.714 16.1836 26.6735 17.1431 27.857 17.1431C29.0405 17.1431 30 16.1836 30 15.0001C30 13.8165 29.0405 12.8571 27.857 12.8571Z" fill="#D70A51"/>
<path d="M27.857 25.714C26.6735 25.714 25.714 26.6735 25.714 27.857C25.714 29.0405 26.6735 30 27.857 30C29.0405 30 30 29.0405 30 27.857C30 26.6735 29.0405 25.714 27.857 25.714Z" fill="#D70A51"/>
<path d="M15.0001 12.8571C13.8165 12.8571 12.8571 13.8165 12.8571 15.0001C12.8571 16.1836 13.8165 17.1431 15.0001 17.1431C16.1836 17.1431 17.1431 16.1836 17.1431 15.0001C17.1431 13.8165 16.1836 12.8571 15.0001 12.8571Z" fill="#D70A51"/>
<path d="M2.14313 0.000133038C0.959587 0.000133038 0.000133038 0.959587 0.000133038 2.14313C0.000133038 3.32668 0.959587 4.28613 2.14313 4.28613C3.32668 4.28613 4.28613 3.32668 4.28613 2.14313C4.28613 0.959587 3.32668 0.000133038 2.14313 0.000133038Z" fill="#D70A51"/>
<path d="M27.857 0.000133038C26.6735 0.000133038 25.714 0.959587 25.714 2.14313C25.714 3.32668 26.6735 4.28613 27.857 4.28613C29.0405 4.28613 30 3.32668 30 2.14313C30 0.959587 29.0405 0.000133038 27.857 0.000133038Z" fill="#D70A51"/>
<path d="M15.0001 0.000133038C13.8165 0.000133038 12.8571 0.959587 12.8571 2.14313C12.8571 3.32668 13.8165 4.28613 15.0001 4.28613C16.1836 4.28613 17.1431 3.32668 17.1431 2.14313C17.1431 0.959587 16.1836 0.000133038 15.0001 0.000133038Z" fill="#D70A51"/>
</svg>
