<svg width="50" height="30" viewBox="0 0 50 30" fill="none" xmlns="http://www.w3.org/2000/svg">
<g clip-path="url(#clip0)">
<path d="M11.8218 7.88212H21.2322V8.62648H12.6844V14.2287H20.7224V14.9731H12.6844V21.1238H21.3302V21.8682H11.8218V7.88212ZM22.0752 7.88212H23.075L27.5057 14.0329L32.0345 7.88212L38.1943 0.0692749L28.0743 14.6793L33.2892 21.8682H32.2501L27.5057 15.3257L22.7417 21.8682H21.7223L26.9764 14.6793L22.0752 7.88212ZM33.6617 8.62648V7.88212H44.3856V8.62648H39.4452V21.8682H38.5825V8.62648H33.6617Z" fill="black"/>
<path d="M0.0490112 7.88211H1.12728L15.996 30.0249L9.85149 21.8682L0.950839 8.93988L0.911629 21.8682H0.0490112V7.88211Z" fill="black"/>
<path d="M44.2987 20.8992C44.477 20.8992 44.6071 20.7633 44.6071 20.5877C44.6071 20.4121 44.477 20.2762 44.2987 20.2762C44.1224 20.2762 43.9903 20.4121 43.9903 20.5877C43.9903 20.7633 44.1224 20.8992 44.2987 20.8992ZM45.1463 20.0796C45.1463 20.5981 45.5219 20.9368 46.0695 20.9368C46.6527 20.9368 47.0052 20.5877 47.0052 19.9814V17.8467H46.5352V19.9793C46.5352 20.3159 46.3653 20.4957 46.0653 20.4957C45.7967 20.4957 45.6142 20.3284 45.6079 20.0796H45.1463ZM47.62 20.0525C47.6535 20.5919 48.1046 20.9368 48.776 20.9368C49.4935 20.9368 49.9425 20.5751 49.9425 19.9981C49.9425 19.5444 49.6866 19.2935 49.0655 19.1493L48.7319 19.0677C48.3375 18.9757 48.178 18.8524 48.178 18.637C48.178 18.3652 48.4256 18.1875 48.797 18.1875C49.1495 18.1875 49.3928 18.3611 49.4369 18.6391H49.8943C49.867 18.1311 49.418 17.7736 48.8033 17.7736C48.1424 17.7736 47.7018 18.1311 47.7018 18.6684C47.7018 19.1116 47.9514 19.3751 48.499 19.5026L48.8893 19.5967C49.29 19.6908 49.4663 19.8287 49.4663 20.0587C49.4663 20.3263 49.1893 20.5208 48.8117 20.5208C48.4067 20.5208 48.1256 20.3389 48.0857 20.0525H47.62Z" fill="black"/>
</g>
<defs>
<clipPath id="clip0">
<rect width="50" height="29.9517" fill="white"/>
</clipPath>
</defs>
</svg>
