<svg width="68" height="45" viewBox="0 0 68 45" fill="none" xmlns="http://www.w3.org/2000/svg">
<g clip-path="url(#clip0)">
<path d="M18.348 7.19495C17.4362 7.12661 16.5218 7.28851 15.6888 7.66575C14.8559 8.043 14.1311 8.62351 13.581 9.35395C13.1218 8.6501 12.485 8.07986 11.7349 7.70079C10.9849 7.32171 10.1481 7.14723 9.309 7.19495C8.46719 7.12951 7.62242 7.2764 6.85211 7.62216C6.08181 7.96792 5.4106 8.50148 4.9 9.17395V7.64495H0V24.0139H4.9V14.7949C4.9 12.8609 5.8 11.7369 7.463 11.7369C9.037 11.7369 9.801 12.7709 9.801 14.4369V24.0609H14.701V14.7949C14.701 12.8609 15.601 11.7369 17.264 11.7369C18.838 11.7369 19.602 12.7709 19.602 14.4369V24.0609H24.502V13.9409C24.554 9.84795 22.08 7.19495 18.348 7.19495Z" fill="#502582"/>
<path d="M54.9543 7.19588C54.0488 7.14849 53.144 7.30116 52.3042 7.64302C51.4644 7.98489 50.7103 8.50756 50.0953 9.17388V0.629883H45.1953V23.9699H50.0953V22.4859C50.7065 23.1566 51.4597 23.6823 52.3 24.0247C53.1403 24.3671 54.0465 24.5175 54.9523 24.4649C59.2243 24.4649 62.7773 20.6879 62.7773 15.8309C62.7333 10.9299 59.2263 7.19588 54.9543 7.19588ZM53.9643 19.8299C53.4368 19.8534 52.9102 19.7654 52.419 19.5715C51.9278 19.3776 51.483 19.0822 51.1138 18.7047C50.7446 18.3272 50.4592 17.876 50.2763 17.3806C50.0933 16.8852 50.017 16.3568 50.0523 15.8299C50.044 15.3108 50.1391 14.7953 50.332 14.3133C50.5249 13.8314 50.8117 13.3926 51.1759 13.0226C51.54 12.6526 51.9741 12.3588 52.4529 12.1582C52.9317 11.9576 53.4457 11.8543 53.9648 11.8543C54.4839 11.8543 54.9979 11.9576 55.4767 12.1582C55.9555 12.3588 56.3896 12.6526 56.7537 13.0226C57.1179 13.3926 57.4048 13.8314 57.5976 14.3133C57.7905 14.7953 57.8856 15.3108 57.8773 15.8299C57.9126 16.3569 57.8363 16.8854 57.6533 17.3808C57.4703 17.8763 57.1848 18.3275 56.8155 18.7051C56.4461 19.0827 56.0013 19.378 55.51 19.5718C55.0186 19.7656 54.4919 19.8536 53.9643 19.8299V19.8299Z" fill="#502582"/>
<path d="M64.5325 0C63.7544 0.00451718 63.0089 0.312527 62.4546 0.858462C61.9002 1.4044 61.5809 2.14514 61.5645 2.923C61.5787 3.6948 61.8953 4.43018 62.4461 4.97096C62.9969 5.51175 63.738 5.81473 64.51 5.81473C65.2819 5.81473 66.023 5.51175 66.5738 4.97096C67.1247 4.43018 67.4412 3.6948 67.4555 2.923C67.4418 2.15203 67.1295 1.41643 66.5843 0.871186C66.039 0.32594 65.3034 0.0136124 64.5325 0V0Z" fill="#D70A51"/>
<path d="M0 33.0531C0 38.7191 8.05 37.9102 8.05 39.7092C8.05 40.3842 7.465 40.5631 6.296 40.5631C4.20802 40.4713 2.13175 40.2007 0.09 39.7542L0 44.0262C2.05661 44.5825 4.17064 44.8993 6.3 44.9701C9.853 44.9701 13.091 43.3961 13.091 39.6191C13.091 33.5481 5.041 34.8072 5.041 32.9632C5.041 32.3782 5.581 32.0631 6.435 32.0631H16.283V39.0331C16.283 43.6201 18.262 45.7791 24.558 44.7441V40.2942C22.175 40.5642 21.185 40.4291 21.185 39.0351V32.0191H24.558V27.7021H6.431C3.013 27.7021 0 29.5021 0 33.0531Z" fill="#502582"/>
<path d="M34.9867 27.7018C33.8282 27.6486 32.6712 27.8338 31.5872 28.2459C30.5032 28.658 29.5154 29.2883 28.6849 30.0977C27.8544 30.9071 27.1989 31.8784 26.7591 32.9514C26.3192 34.0244 26.1043 35.1764 26.1277 36.3358C26.1277 41.1928 29.6807 44.9698 35.3467 44.9698C36.7432 45.0464 38.1372 44.7794 39.4065 44.1923C40.6759 43.6051 41.7819 42.7156 42.6277 41.6018L38.6277 39.3528C38.206 39.7645 37.7064 40.0879 37.1581 40.3041C36.6098 40.5203 36.0239 40.6249 35.4347 40.6118C33.5907 40.6118 32.0617 40.0268 31.4347 38.3188H43.2617C43.3926 37.6675 43.4529 37.004 43.4417 36.3398C43.4848 35.2094 43.297 34.082 42.8897 33.0266C42.4824 31.9712 41.8643 31.0099 41.073 30.2014C40.2816 29.393 39.3338 28.7544 38.2873 28.3246C37.2409 27.8948 36.1178 27.6829 34.9867 27.7018V27.7018ZM31.2987 34.6268C31.5456 33.8664 32.0269 33.2037 32.6736 32.7338C33.3203 32.2638 34.0993 32.0107 34.8987 32.0107C35.6982 32.0107 36.4771 32.2638 37.1238 32.7338C37.7705 33.2037 38.2518 33.8664 38.4987 34.6268H31.2987Z" fill="#502582"/>
<path d="M50.0504 30.4902V27.7472H45.1504V44.5212H50.0504V36.5212C50.0504 33.2832 52.9284 32.4742 54.9504 32.7882V27.2072C53.8892 27.1546 52.8392 27.4456 51.9565 28.037C51.0738 28.6284 50.4053 29.4887 50.0504 30.4902V30.4902Z" fill="#502582"/>
<path d="M34.7619 7.19481C33.0562 7.2037 31.3913 7.71762 29.9774 8.67172C28.5635 9.62583 27.4638 10.9774 26.8172 12.5558C26.1706 14.1342 26.0061 15.8688 26.3443 17.5406C26.6825 19.2125 27.5083 20.7467 28.7176 21.9497C29.9268 23.1527 31.4653 23.9705 33.1389 24.3001C34.8125 24.6296 36.5462 24.456 38.1213 23.8012C39.6963 23.1464 41.0421 22.0398 41.9888 20.6209C42.9356 19.202 43.4408 17.5345 43.4409 15.8288C43.4469 14.6895 43.2262 13.5604 42.7916 12.5072C42.357 11.454 41.7172 10.4978 40.9095 9.69423C40.1018 8.8907 39.1423 8.25589 38.0868 7.82679C37.0314 7.39769 35.9011 7.18285 34.7619 7.19481V7.19481ZM34.7619 19.6948C34.2545 19.7084 33.7497 19.617 33.2793 19.4263C32.8089 19.2357 32.383 18.95 32.0282 18.587C31.6734 18.224 31.3974 17.7917 31.2175 17.3171C31.0376 16.8424 30.9577 16.3358 30.9829 15.8288C30.9686 15.3238 31.0558 14.821 31.2392 14.3503C31.4227 13.8795 31.6986 13.4503 32.0508 13.0881C32.403 12.7259 32.8242 12.4379 33.2896 12.2413C33.755 12.0447 34.2551 11.9433 34.7604 11.9433C35.2656 11.9433 35.7657 12.0447 36.2311 12.2413C36.6965 12.4379 37.1177 12.7259 37.4699 13.0881C37.8221 13.4503 38.098 13.8795 38.2815 14.3503C38.4649 14.821 38.5521 15.3238 38.5379 15.8288C38.5668 16.3364 38.4896 16.8445 38.3112 17.3206C38.1329 17.7967 37.8573 18.2305 37.5021 18.5942C37.1468 18.9579 36.7197 19.2436 36.2479 19.4331C35.7761 19.6226 35.27 19.7117 34.7619 19.6948V19.6948Z" fill="#502582"/>
</g>
<defs>
<clipPath id="clip0">
<rect width="67.455" height="45" fill="white"/>
</clipPath>
</defs>
</svg>
